<svg width="20" height="20" viewBox="0 0 20 20" fill="none" xmlns="http://www.w3.org/2000/svg">
<rect width="20" height="20" fill="#DADADA"/>
<g id="Marketplace: Alibaba style">
<path d="M-1348 -260C-1348 -261.105 -1347.1 -262 -1346 -262H6942C6943.1 -262 6944 -261.105 6944 -260V3716C6944 3717.1 6943.1 3718 6942 3718H-1346C-1347.1 3718 -1348 3717.1 -1348 3716V-260Z" fill="#E5E5E5"/>
<g id="web-main">
<rect width="1440" height="3571" transform="translate(-1156 -26)" fill="#F7FAFC"/>
<g id="Layout/header-alibaba">
<path id="BG" fill-rule="evenodd" clip-rule="evenodd" d="M-1156 -26H284V60H-1156V-26Z" fill="white"/>
<g id="Actions">
<g id="Message">
<path id="Vector" fill-rule="evenodd" clip-rule="evenodd" d="M18 0H2C0.9 0 0.01 0.9 0.01 2L0 20L4 16H18C19.1 16 20 15.1 20 14V2C20 0.9 19.1 0 18 0ZM5 7H15C15.55 7 16 7.45 16 8C16 8.55 15.55 9 15 9H5C4.45 9 4 8.55 4 8C4 7.45 4.45 7 5 7ZM11 12H5C4.45 12 4 11.55 4 11C4 10.45 4.45 10 5 10H11C11.55 10 12 10.45 12 11C12 11.55 11.55 12 11 12ZM15 6H5C4.45 6 4 5.55 4 5C4 4.45 4.45 4 5 4H15C15.55 4 16 4.45 16 5C16 5.55 15.55 6 15 6Z" fill="#8B96A5"/>
</g>
</g>
</g>
</g>
<path d="M-1346 -261H6942V-263H-1346V-261ZM6943 -260V3716H6945V-260H6943ZM6942 3717H-1346V3719H6942V3717ZM-1347 3716V-260H-1349V3716H-1347ZM-1346 3717C-1346.55 3717 -1347 3716.55 -1347 3716H-1349C-1349 3717.66 -1347.66 3719 -1346 3719V3717ZM6943 3716C6943 3716.55 6942.55 3717 6942 3717V3719C6943.66 3719 6945 3717.66 6945 3716H6943ZM6942 -261C6942.55 -261 6943 -260.552 6943 -260H6945C6945 -261.657 6943.66 -263 6942 -263V-261ZM-1346 -263C-1347.66 -263 -1349 -261.657 -1349 -260H-1347C-1347 -260.552 -1346.55 -261 -1346 -261V-263Z" fill="black" fill-opacity="0.1"/>
</g>
</svg>
